00A8
0001
0203
0405
FFF1
2345
FFFF
FFFF
0007
FF00
0000
0000
6C00
0000
0000
0000
0000
0000
0000
0000
0100
0000
4000
0000
4000
0000
4000
0000
4000
0000
4000
0000
4000
0000
4000
0000
4000
0000
4000
0000
4000
0000
0000
0100
0000
4000
0000
4000
0000
4000
0000
4000
0000
4000
0000
4000
0000
4000
0000
4000
0000
4000
0000
4000
0000
0000
0100
0000
4000
0000
4000
0000
4000
0000
4000
0000
4000
0000
4000
0000
4000
0000
4000
0000
4000
0000
4000
0000
0000
0100
0000
4000
0000
4000
0000
4000
0000
4000
0000
4000
0000
4000
0000
4000
0000
4000
0000
4000
0000
4000
0000
0000
0100
0000
4000
0000
4000
0000
4000
0000
4000
0000
4000
0000
4000
0000
4000
0000
4000
0000
4000
0000
4000
0000
0000
0100
0000
4000
0000
4000
0000
4000
0000
4000
0000
4000
0000
4000
0000
4000
0000
4000
0000
4000
0000
4000
0000
0000
0100
0000
4000
0000
4000
0000
4000
0000
4000
0000
4000
0000
4000
0000
4000
0000
4000
0000
4000
0000
4000
0000
0000
0100
0000
4000
0000
4000
0000
4000
0000
4000
0000
4000
0000
4000
0000
4000
0000
4000
0000
4000
0000
4000
0000
0000
0100
0000
4000
0000
4000
0000
4000
0000
4000
0000
4000
0000
4000
0000
4000
0000
4000
0000
4000
0000
4000
0000
0000
0100
0000
4000
0000
4000
0000
4000
0000
4000
0000
4000
0000
4000
0000
4000
0000
4000
0000
4000
0000
4000
0000
